<svg xmlns="http://www.w3.org/2000/svg" viewBox="0 0 1024 1024">
  <rect x="64" y="64" width="896" height="896" rx="200" fill="#ff9f5a"/>
  <path d="M184 640c0-200 150-340 328-340s328 140 328 340c0 90-120 130-328 130s-328-40-328-130z" fill="#fff6e8"/>
  <path d="M512 300c-40 40-60 80-66 130M512 300c40 40 60 80 66 130M512 300v128" stroke="#ecd3b0" stroke-width="22" stroke-linecap="round" fill="none"/>
  <circle cx="420" cy="590" r="30" fill="#3b2a20"/>
  <circle cx="604" cy="590" r="30" fill="#3b2a20"/>
  <path d="M478 640q34 30 68 0" stroke="#3b2a20" stroke-width="18" stroke-linecap="round" fill="none"/>
  <ellipse cx="360" cy="650" rx="40" ry="24" fill="#ffb3a7"/>
  <ellipse cx="664" cy="650" rx="40" ry="24" fill="#ffb3a7"/>
</svg>
